<mxfile>
    <diagram id="CBhhSlvV4TSZD_NFqNw8" name="Page-1">
        <mxGraphModel dx="1204" dy="574" grid="1" gridSize="5" guides="1" tooltips="1" connect="1" arrows="1" fold="1" page="1" pageScale="1" pageWidth="4681" pageHeight="3300" background="#E6E6E6" math="0" shadow="0">
            <root>
                <mxCell id="0"/>
                <mxCell id="1" parent="0"/>
                <mxCell id="SwX5QnUCMjqNOXKMfuhw-78" value="" style="rounded=1;whiteSpace=wrap;html=1;shadow=0;dashed=1;fontFamily=Verdana;fontSize=10;fillColor=none;strokeWidth=3;dashPattern=1 1;strokeColor=#33FF33;" parent="1" vertex="1">
                    <mxGeometry x="1535" y="1775" width="1050" height="115" as="geometry"/>
                </mxCell>
                <mxCell id="SwX5QnUCMjqNOXKMfuhw-1" value="" style="rounded=1;whiteSpace=wrap;html=1;fillColor=#e1d5e7;shadow=0;strokeColor=#9673a6;dashed=1;" parent="1" vertex="1">
                    <mxGeometry x="1535" y="1015" width="1050" height="370" as="geometry"/>
                </mxCell>
                <mxCell id="SwX5QnUCMjqNOXKMfuhw-2" value="" style="rounded=1;whiteSpace=wrap;html=1;fillColor=#e1d5e7;strokeColor=#9673a6;dashed=1;" parent="1" vertex="1">
                    <mxGeometry x="2020" y="1490" width="565" height="225" as="geometry"/>
                </mxCell>
                <mxCell id="SwX5QnUCMjqNOXKMfuhw-3" value="Fusion 360" style="text;html=1;strokeColor=none;fillColor=none;align=center;verticalAlign=middle;whiteSpace=wrap;rounded=0;fontSize=30;fontFamily=Verdana;" parent="1" vertex="1">
                    <mxGeometry x="2216.25" y="1675" width="172.5" height="20" as="geometry"/>
                </mxCell>
                <mxCell id="SwX5QnUCMjqNOXKMfuhw-4" value="RocketPy Core" style="text;html=1;strokeColor=none;fillColor=none;align=center;verticalAlign=middle;whiteSpace=wrap;rounded=0;fontSize=30;fontFamily=Verdana;" parent="1" vertex="1">
                    <mxGeometry x="1932.5" y="1030" width="255" height="20" as="geometry"/>
                </mxCell>
                <mxCell id="SwX5QnUCMjqNOXKMfuhw-9" style="edgeStyle=orthogonalEdgeStyle;rounded=1;orthogonalLoop=1;jettySize=auto;html=1;fontFamily=Verdana;fontSize=14;startArrow=classic;startFill=1;strokeWidth=3;exitX=0.5;exitY=1;exitDx=0;exitDy=0;entryX=0.5;entryY=0;entryDx=0;entryDy=0;" parent="1" source="SwX5QnUCMjqNOXKMfuhw-7" target="SwX5QnUCMjqNOXKMfuhw-8" edge="1">
                    <mxGeometry relative="1" as="geometry">
                        <Array as="points">
                            <mxPoint x="2110" y="1540"/>
                            <mxPoint x="2110" y="1540"/>
                        </Array>
                    </mxGeometry>
                </mxCell>
                <mxCell id="SwX5QnUCMjqNOXKMfuhw-99" style="edgeStyle=orthogonalEdgeStyle;rounded=1;orthogonalLoop=1;jettySize=auto;html=1;exitX=0.25;exitY=0;exitDx=0;exitDy=0;entryX=1;entryY=0.75;entryDx=0;entryDy=0;fontFamily=Verdana;fontSize=4;startArrow=classic;startFill=1;endArrow=classic;endFill=1;strokeColor=#B20000;strokeWidth=1;fillColor=#e51400;" parent="1" source="SwX5QnUCMjqNOXKMfuhw-7" target="SwX5QnUCMjqNOXKMfuhw-10" edge="1">
                    <mxGeometry relative="1" as="geometry"/>
                </mxCell>
                <mxCell id="SwX5QnUCMjqNOXKMfuhw-7" value="F360Client" style="rounded=1;whiteSpace=wrap;html=1;fontFamily=Verdana;fontSize=14;fillColor=#ffe6cc;strokeColor=#d79b00;" parent="1" vertex="1">
                    <mxGeometry x="2050" y="1297.5" width="120" height="60" as="geometry"/>
                </mxCell>
                <mxCell id="SwX5QnUCMjqNOXKMfuhw-59" style="edgeStyle=orthogonalEdgeStyle;rounded=1;orthogonalLoop=1;jettySize=auto;html=1;entryX=0;entryY=0.5;entryDx=0;entryDy=0;fontFamily=Verdana;fontSize=30;startArrow=classic;startFill=1;endArrow=classic;endFill=1;strokeColor=#B20000;strokeWidth=1;fillColor=#e51400;" parent="1" source="SwX5QnUCMjqNOXKMfuhw-8" target="SwX5QnUCMjqNOXKMfuhw-58" edge="1">
                    <mxGeometry relative="1" as="geometry"/>
                </mxCell>
                <mxCell id="SwX5QnUCMjqNOXKMfuhw-8" value="RPyLinker" style="rounded=1;whiteSpace=wrap;html=1;fontFamily=Verdana;fontSize=14;fillColor=#dae8fc;strokeColor=#6c8ebf;" parent="1" vertex="1">
                    <mxGeometry x="2050" y="1567.5" width="120" height="60" as="geometry"/>
                </mxCell>
                <mxCell id="SwX5QnUCMjqNOXKMfuhw-97" style="edgeStyle=orthogonalEdgeStyle;rounded=1;orthogonalLoop=1;jettySize=auto;html=1;exitX=0;exitY=0.75;exitDx=0;exitDy=0;entryX=0.75;entryY=0;entryDx=0;entryDy=0;fontFamily=Verdana;fontSize=4;startArrow=classic;startFill=1;endArrow=classic;endFill=1;strokeColor=#B20000;strokeWidth=1;fillColor=#e51400;" parent="1" source="SwX5QnUCMjqNOXKMfuhw-10" target="SwX5QnUCMjqNOXKMfuhw-29" edge="1">
                    <mxGeometry relative="1" as="geometry"/>
                </mxCell>
                <mxCell id="SwX5QnUCMjqNOXKMfuhw-10" value="" style="rounded=1;whiteSpace=wrap;html=1;fontFamily=Verdana;fontSize=14;fillColor=#B3B3B3;" parent="1" vertex="1">
                    <mxGeometry x="1830" y="1105" width="155" height="130" as="geometry"/>
                </mxCell>
                <mxCell id="SwX5QnUCMjqNOXKMfuhw-74" style="edgeStyle=orthogonalEdgeStyle;rounded=1;orthogonalLoop=1;jettySize=auto;html=1;entryX=0.25;entryY=1;entryDx=0;entryDy=0;fontFamily=Verdana;fontSize=10;startArrow=none;startFill=0;endArrow=classic;endFill=1;strokeColor=#B20000;strokeWidth=1;fillColor=#e51400;" parent="1" source="SwX5QnUCMjqNOXKMfuhw-12" target="SwX5QnUCMjqNOXKMfuhw-10" edge="1">
                    <mxGeometry relative="1" as="geometry"/>
                </mxCell>
                <mxCell id="SwX5QnUCMjqNOXKMfuhw-12" value="Standard Components Library" style="rounded=1;whiteSpace=wrap;html=1;fontFamily=Verdana;fontSize=10;fillColor=#d5e8d4;strokeColor=#82b366;" parent="1" vertex="1">
                    <mxGeometry x="1815" y="1295" width="70" height="60" as="geometry"/>
                </mxCell>
                <mxCell id="SwX5QnUCMjqNOXKMfuhw-22" style="edgeStyle=orthogonalEdgeStyle;rounded=0;orthogonalLoop=1;jettySize=auto;html=1;entryX=0.5;entryY=0;entryDx=0;entryDy=0;fontFamily=Verdana;fontSize=10;startArrow=none;startFill=0;endArrow=classic;endFill=1;strokeWidth=1;" parent="1" source="SwX5QnUCMjqNOXKMfuhw-14" target="SwX5QnUCMjqNOXKMfuhw-15" edge="1">
                    <mxGeometry relative="1" as="geometry"/>
                </mxCell>
                <mxCell id="SwX5QnUCMjqNOXKMfuhw-24" style="edgeStyle=orthogonalEdgeStyle;rounded=0;orthogonalLoop=1;jettySize=auto;html=1;entryX=-0.017;entryY=0.227;entryDx=0;entryDy=0;fontFamily=Verdana;fontSize=10;startArrow=none;startFill=0;endArrow=classic;endFill=1;strokeWidth=1;entryPerimeter=0;exitX=1;exitY=0.5;exitDx=0;exitDy=0;" parent="1" source="SwX5QnUCMjqNOXKMfuhw-14" target="SwX5QnUCMjqNOXKMfuhw-16" edge="1">
                    <mxGeometry relative="1" as="geometry">
                        <Array as="points"/>
                    </mxGeometry>
                </mxCell>
                <mxCell id="SwX5QnUCMjqNOXKMfuhw-14" value="Component" style="rounded=1;whiteSpace=wrap;html=1;fontFamily=Verdana;fontSize=10;fillColor=#ffe6cc;strokeColor=#d79b00;" parent="1" vertex="1">
                    <mxGeometry x="1840" y="1140" width="70" height="30" as="geometry"/>
                </mxCell>
                <mxCell id="SwX5QnUCMjqNOXKMfuhw-70" style="edgeStyle=orthogonalEdgeStyle;rounded=1;orthogonalLoop=1;jettySize=auto;html=1;entryX=0.019;entryY=0.836;entryDx=0;entryDy=0;entryPerimeter=0;fontFamily=Verdana;fontSize=11;startArrow=none;startFill=0;endArrow=classic;endFill=1;strokeColor=#333333;strokeWidth=1;" parent="1" source="SwX5QnUCMjqNOXKMfuhw-15" target="SwX5QnUCMjqNOXKMfuhw-16" edge="1">
                    <mxGeometry relative="1" as="geometry"/>
                </mxCell>
                <mxCell id="SwX5QnUCMjqNOXKMfuhw-15" value="Interface" style="rounded=1;whiteSpace=wrap;html=1;fontFamily=Verdana;fontSize=10;fillColor=#ffe6cc;strokeColor=#d79b00;" parent="1" vertex="1">
                    <mxGeometry x="1840" y="1195" width="70" height="30" as="geometry"/>
                </mxCell>
                <mxCell id="SwX5QnUCMjqNOXKMfuhw-16" value="Rocket" style="rounded=1;whiteSpace=wrap;html=1;fontFamily=Verdana;fontSize=10;fillColor=#ffe6cc;strokeColor=#d79b00;" parent="1" vertex="1">
                    <mxGeometry x="1930" y="1135" width="40" height="90" as="geometry"/>
                </mxCell>
                <mxCell id="SwX5QnUCMjqNOXKMfuhw-75" style="edgeStyle=orthogonalEdgeStyle;rounded=1;orthogonalLoop=1;jettySize=auto;html=1;entryX=0.75;entryY=1;entryDx=0;entryDy=0;fontFamily=Verdana;fontSize=10;startArrow=none;startFill=0;endArrow=classic;endFill=1;strokeColor=#B20000;strokeWidth=1;fillColor=#e51400;" parent="1" source="SwX5QnUCMjqNOXKMfuhw-17" target="SwX5QnUCMjqNOXKMfuhw-10" edge="1">
                    <mxGeometry relative="1" as="geometry"/>
                </mxCell>
                <mxCell id="SwX5QnUCMjqNOXKMfuhw-17" value="Standard Interfaces&lt;br style=&quot;font-size: 10px;&quot;&gt;Library" style="rounded=1;whiteSpace=wrap;html=1;fontFamily=Verdana;fontSize=10;fillColor=#d5e8d4;strokeColor=#82b366;" parent="1" vertex="1">
                    <mxGeometry x="1930" y="1295" width="70" height="60" as="geometry"/>
                </mxCell>
                <mxCell id="SwX5QnUCMjqNOXKMfuhw-25" value="&lt;font style=&quot;font-size: 12px&quot;&gt;Parts Designer&lt;/font&gt;" style="text;html=1;strokeColor=none;fillColor=none;align=center;verticalAlign=middle;whiteSpace=wrap;rounded=0;fontSize=12;fontFamily=Verdana;" parent="1" vertex="1">
                    <mxGeometry x="1860" y="1110" width="100" height="20" as="geometry"/>
                </mxCell>
                <mxCell id="SwX5QnUCMjqNOXKMfuhw-26" value="TCP (Localhost)" style="text;html=1;strokeColor=none;fillColor=none;align=left;verticalAlign=middle;whiteSpace=wrap;rounded=0;fontSize=20;fontFamily=Verdana;" parent="1" vertex="1">
                    <mxGeometry x="2126" y="1420" width="40" height="20" as="geometry"/>
                </mxCell>
                <mxCell id="SwX5QnUCMjqNOXKMfuhw-28" value="" style="rounded=1;whiteSpace=wrap;html=1;fillColor=#f8cecc;shadow=0;strokeColor=#b85450;dashed=1;" parent="1" vertex="1">
                    <mxGeometry x="1535" y="1490" width="352.5" height="225" as="geometry"/>
                </mxCell>
                <mxCell id="SwX5QnUCMjqNOXKMfuhw-100" style="edgeStyle=orthogonalEdgeStyle;rounded=1;orthogonalLoop=1;jettySize=auto;html=1;entryX=0.5;entryY=0;entryDx=0;entryDy=0;fontFamily=Verdana;fontSize=4;startArrow=classic;startFill=1;endArrow=classic;endFill=1;strokeColor=#333333;strokeWidth=3;" parent="1" source="SwX5QnUCMjqNOXKMfuhw-29" target="SwX5QnUCMjqNOXKMfuhw-33" edge="1">
                    <mxGeometry relative="1" as="geometry"/>
                </mxCell>
                <mxCell id="SwX5QnUCMjqNOXKMfuhw-29" value="VSClient&lt;br&gt;&lt;font style=&quot;font-size: 10px&quot;&gt;(ValiRocket)&lt;/font&gt;" style="rounded=1;whiteSpace=wrap;html=1;fontFamily=Verdana;fontSize=14;fillColor=#ffe6cc;strokeColor=#d79b00;" parent="1" vertex="1">
                    <mxGeometry x="1645" y="1297.5" width="130" height="55" as="geometry"/>
                </mxCell>
                <mxCell id="SwX5QnUCMjqNOXKMfuhw-31" value="Valispace" style="text;html=1;strokeColor=none;fillColor=none;align=center;verticalAlign=middle;whiteSpace=wrap;rounded=0;fontSize=30;fontFamily=Verdana;" parent="1" vertex="1">
                    <mxGeometry x="1625" y="1675" width="170" height="20" as="geometry"/>
                </mxCell>
                <mxCell id="SwX5QnUCMjqNOXKMfuhw-33" value="Valispace REST API" style="rounded=1;whiteSpace=wrap;html=1;fontFamily=Verdana;fontSize=14;fontColor=#333333;fillColor=#B3B3B3;" parent="1" vertex="1">
                    <mxGeometry x="1650" y="1515" width="120" height="60" as="geometry"/>
                </mxCell>
                <mxCell id="SwX5QnUCMjqNOXKMfuhw-35" value="RocketPy - Structure and Integrations" style="text;html=1;align=center;verticalAlign=middle;whiteSpace=wrap;rounded=0;fontSize=60;fontFamily=Helvetica;fontStyle=0;fontColor=#CC0000;" parent="1" vertex="1">
                    <mxGeometry x="1625" y="720" width="560" height="175" as="geometry"/>
                </mxCell>
                <mxCell id="SwX5QnUCMjqNOXKMfuhw-38" value="REST (HTTPs)" style="text;html=1;strokeColor=none;fillColor=none;align=right;verticalAlign=middle;whiteSpace=wrap;rounded=0;fontSize=20;fontFamily=Verdana;" parent="1" vertex="1">
                    <mxGeometry x="1660" y="1420" width="40" height="20" as="geometry"/>
                </mxCell>
                <mxCell id="SwX5QnUCMjqNOXKMfuhw-46" style="edgeStyle=orthogonalEdgeStyle;rounded=1;orthogonalLoop=1;jettySize=auto;html=1;fontFamily=Verdana;fontSize=34;startArrow=none;startFill=0;endArrow=classic;endFill=1;strokeWidth=1;fillColor=#e51400;strokeColor=#B20000;" parent="1" source="SwX5QnUCMjqNOXKMfuhw-42" target="SwX5QnUCMjqNOXKMfuhw-43" edge="1">
                    <mxGeometry relative="1" as="geometry"/>
                </mxCell>
                <mxCell id="SwX5QnUCMjqNOXKMfuhw-101" style="edgeStyle=orthogonalEdgeStyle;rounded=1;orthogonalLoop=1;jettySize=auto;html=1;entryX=0;entryY=0.5;entryDx=0;entryDy=0;fontFamily=Verdana;fontSize=4;startArrow=classic;startFill=1;endArrow=classic;endFill=1;strokeColor=#B20000;strokeWidth=1;fillColor=#e51400;" parent="1" source="SwX5QnUCMjqNOXKMfuhw-42" target="SwX5QnUCMjqNOXKMfuhw-33" edge="1">
                    <mxGeometry relative="1" as="geometry"/>
                </mxCell>
                <mxCell id="SwX5QnUCMjqNOXKMfuhw-42" value="Requirements" style="rounded=1;whiteSpace=wrap;html=1;fontFamily=Verdana;fontSize=14;fillColor=#ffe6cc;strokeColor=#d79b00;" parent="1" vertex="1">
                    <mxGeometry x="1552.5" y="1600" width="120" height="55" as="geometry"/>
                </mxCell>
                <mxCell id="SwX5QnUCMjqNOXKMfuhw-102" style="edgeStyle=orthogonalEdgeStyle;rounded=1;orthogonalLoop=1;jettySize=auto;html=1;entryX=1;entryY=0.5;entryDx=0;entryDy=0;fontFamily=Verdana;fontSize=4;startArrow=classic;startFill=1;endArrow=classic;endFill=1;strokeColor=#B20000;strokeWidth=1;fillColor=#e51400;" parent="1" source="SwX5QnUCMjqNOXKMfuhw-43" target="SwX5QnUCMjqNOXKMfuhw-33" edge="1">
                    <mxGeometry relative="1" as="geometry"/>
                </mxCell>
                <mxCell id="SwX5QnUCMjqNOXKMfuhw-43" value="Valis" style="rounded=1;whiteSpace=wrap;html=1;fontFamily=Verdana;fontSize=14;fillColor=#ffe6cc;strokeColor=#d79b00;" parent="1" vertex="1">
                    <mxGeometry x="1745" y="1600" width="120" height="55" as="geometry"/>
                </mxCell>
                <mxCell id="SwX5QnUCMjqNOXKMfuhw-49" value="Python Class" style="rounded=1;whiteSpace=wrap;html=1;fontFamily=Verdana;fontSize=14;fillColor=#ffe6cc;strokeColor=#d79b00;" parent="1" vertex="1">
                    <mxGeometry x="1671" y="1805" width="120" height="60" as="geometry"/>
                </mxCell>
                <mxCell id="SwX5QnUCMjqNOXKMfuhw-50" value="Python Library" style="rounded=1;whiteSpace=wrap;html=1;fontFamily=Verdana;fontSize=14;fillColor=#d5e8d4;strokeColor=#82b366;" parent="1" vertex="1">
                    <mxGeometry x="1821" y="1805" width="120" height="60" as="geometry"/>
                </mxCell>
                <mxCell id="SwX5QnUCMjqNOXKMfuhw-51" value="Python Add-in" style="rounded=1;whiteSpace=wrap;html=1;fontFamily=Verdana;fontSize=14;fillColor=#dae8fc;strokeColor=#6c8ebf;" parent="1" vertex="1">
                    <mxGeometry x="1971" y="1805" width="120" height="60" as="geometry"/>
                </mxCell>
                <mxCell id="SwX5QnUCMjqNOXKMfuhw-52" value="Module/Black Box" style="rounded=1;whiteSpace=wrap;html=1;fontFamily=Verdana;fontSize=14;fillColor=#B3B3B3;" parent="1" vertex="1">
                    <mxGeometry x="2121" y="1805" width="124" height="60" as="geometry"/>
                </mxCell>
                <mxCell id="SwX5QnUCMjqNOXKMfuhw-53" value="&lt;font style=&quot;font-size: 14px&quot;&gt;Local Apps&lt;/font&gt;" style="rounded=1;whiteSpace=wrap;html=1;fillColor=#e1d5e7;shadow=0;strokeColor=#9673a6;dashed=1;fontSize=15;" parent="1" vertex="1">
                    <mxGeometry x="2275" y="1805" width="124" height="60" as="geometry"/>
                </mxCell>
                <mxCell id="SwX5QnUCMjqNOXKMfuhw-56" value="Key" style="text;html=1;align=center;verticalAlign=middle;resizable=0;points=[];autosize=1;strokeColor=none;fontSize=30;fontFamily=Verdana;" parent="1" vertex="1">
                    <mxGeometry x="1560" y="1812.5" width="70" height="45" as="geometry"/>
                </mxCell>
                <mxCell id="SwX5QnUCMjqNOXKMfuhw-57" value="&lt;font style=&quot;font-size: 14px&quot;&gt;Cloud Apps&lt;/font&gt;" style="rounded=1;whiteSpace=wrap;html=1;fillColor=#f8cecc;shadow=0;strokeColor=#b85450;dashed=1;fontSize=15;" parent="1" vertex="1">
                    <mxGeometry x="2430" y="1805" width="125" height="60" as="geometry"/>
                </mxCell>
                <mxCell id="SwX5QnUCMjqNOXKMfuhw-58" value="Fusion 360 Python API" style="rounded=1;whiteSpace=wrap;html=1;fontFamily=Verdana;fontSize=14;fontColor=#333333;fillColor=#B3B3B3;" parent="1" vertex="1">
                    <mxGeometry x="2236" y="1567.5" width="120" height="60" as="geometry"/>
                </mxCell>
                <mxCell id="SwX5QnUCMjqNOXKMfuhw-64" style="edgeStyle=orthogonalEdgeStyle;rounded=1;orthogonalLoop=1;jettySize=auto;html=1;entryX=1;entryY=0.25;entryDx=0;entryDy=0;fontFamily=Verdana;fontSize=11;startArrow=classic;startFill=1;endArrow=classic;endFill=1;strokeColor=#B20000;strokeWidth=1;fillColor=#e51400;" parent="1" source="SwX5QnUCMjqNOXKMfuhw-60" target="SwX5QnUCMjqNOXKMfuhw-58" edge="1">
                    <mxGeometry relative="1" as="geometry"/>
                </mxCell>
                <mxCell id="SwX5QnUCMjqNOXKMfuhw-60" value="Bodies" style="rounded=1;whiteSpace=wrap;html=1;fontFamily=Verdana;fontSize=11;fontColor=#333333;fillColor=#B3B3B3;" parent="1" vertex="1">
                    <mxGeometry x="2460" y="1517.5" width="70" height="40" as="geometry"/>
                </mxCell>
                <mxCell id="SwX5QnUCMjqNOXKMfuhw-65" style="edgeStyle=orthogonalEdgeStyle;rounded=1;orthogonalLoop=1;jettySize=auto;html=1;entryX=1;entryY=0.5;entryDx=0;entryDy=0;fontFamily=Verdana;fontSize=11;startArrow=classic;startFill=1;endArrow=classic;endFill=1;strokeColor=#B20000;strokeWidth=1;fillColor=#e51400;" parent="1" source="SwX5QnUCMjqNOXKMfuhw-61" target="SwX5QnUCMjqNOXKMfuhw-58" edge="1">
                    <mxGeometry relative="1" as="geometry"/>
                </mxCell>
                <mxCell id="SwX5QnUCMjqNOXKMfuhw-61" value="Assemblies" style="rounded=1;whiteSpace=wrap;html=1;fontFamily=Verdana;fontSize=11;fontColor=#333333;fillColor=#B3B3B3;" parent="1" vertex="1">
                    <mxGeometry x="2460" y="1577.5" width="70" height="40" as="geometry"/>
                </mxCell>
                <mxCell id="SwX5QnUCMjqNOXKMfuhw-66" style="edgeStyle=orthogonalEdgeStyle;rounded=1;orthogonalLoop=1;jettySize=auto;html=1;entryX=1;entryY=0.75;entryDx=0;entryDy=0;fontFamily=Verdana;fontSize=11;startArrow=classic;startFill=1;endArrow=classic;endFill=1;strokeColor=#B20000;strokeWidth=1;fillColor=#e51400;" parent="1" source="SwX5QnUCMjqNOXKMfuhw-62" target="SwX5QnUCMjqNOXKMfuhw-58" edge="1">
                    <mxGeometry relative="1" as="geometry"/>
                </mxCell>
                <mxCell id="SwX5QnUCMjqNOXKMfuhw-62" value="Simulations" style="rounded=1;whiteSpace=wrap;html=1;fontFamily=Verdana;fontSize=11;fontColor=#333333;fillColor=#B3B3B3;" parent="1" vertex="1">
                    <mxGeometry x="2460" y="1637.5" width="70" height="40" as="geometry"/>
                </mxCell>
                <mxCell id="SwX5QnUCMjqNOXKMfuhw-69" style="edgeStyle=orthogonalEdgeStyle;rounded=1;orthogonalLoop=1;jettySize=auto;html=1;entryX=0;entryY=0.5;entryDx=0;entryDy=0;fontFamily=Verdana;fontSize=11;startArrow=none;startFill=0;endArrow=classic;endFill=1;strokeColor=#B20000;strokeWidth=1;fillColor=#e51400;" parent="1" source="SwX5QnUCMjqNOXKMfuhw-67" target="SwX5QnUCMjqNOXKMfuhw-10" edge="1">
                    <mxGeometry relative="1" as="geometry"/>
                </mxCell>
                <mxCell id="SwX5QnUCMjqNOXKMfuhw-96" style="edgeStyle=orthogonalEdgeStyle;rounded=1;orthogonalLoop=1;jettySize=auto;html=1;exitX=0.75;exitY=1;exitDx=0;exitDy=0;entryX=0.25;entryY=0;entryDx=0;entryDy=0;fontFamily=Verdana;fontSize=4;startArrow=classic;startFill=1;endArrow=classic;endFill=1;strokeColor=#B20000;strokeWidth=1;fillColor=#e51400;" parent="1" source="SwX5QnUCMjqNOXKMfuhw-67" target="SwX5QnUCMjqNOXKMfuhw-29" edge="1">
                    <mxGeometry relative="1" as="geometry"/>
                </mxCell>
                <mxCell id="SwX5QnUCMjqNOXKMfuhw-110" style="edgeStyle=orthogonalEdgeStyle;rounded=1;orthogonalLoop=1;jettySize=auto;html=1;fontFamily=Verdana;fontSize=4;startArrow=none;startFill=0;endArrow=classic;endFill=1;strokeColor=#B20000;strokeWidth=1;fillColor=#e51400;" parent="1" source="SwX5QnUCMjqNOXKMfuhw-67" edge="1">
                    <mxGeometry relative="1" as="geometry">
                        <mxPoint x="2134" y="1104" as="targetPoint"/>
                        <Array as="points">
                            <mxPoint x="1690" y="1085"/>
                            <mxPoint x="2134" y="1085"/>
                        </Array>
                    </mxGeometry>
                </mxCell>
                <mxCell id="SwX5QnUCMjqNOXKMfuhw-67" value="" style="rounded=1;whiteSpace=wrap;html=1;fontFamily=Verdana;fontSize=14;fillColor=#B3B3B3;" parent="1" vertex="1">
                    <mxGeometry x="1565" y="1105" width="150" height="130" as="geometry"/>
                </mxCell>
                <mxCell id="SwX5QnUCMjqNOXKMfuhw-68" value="Mission Planner" style="text;html=1;strokeColor=none;fillColor=none;align=center;verticalAlign=middle;whiteSpace=wrap;rounded=0;fontSize=12;fontFamily=Verdana;" parent="1" vertex="1">
                    <mxGeometry x="1582.5" y="1110" width="120" height="20" as="geometry"/>
                </mxCell>
                <mxCell id="SwX5QnUCMjqNOXKMfuhw-72" value="Rocket object" style="text;html=1;strokeColor=none;fillColor=none;align=center;verticalAlign=middle;whiteSpace=wrap;rounded=0;fontSize=10;fontFamily=Verdana;" parent="1" vertex="1">
                    <mxGeometry x="1720" y="1150" width="100" height="20" as="geometry"/>
                </mxCell>
                <mxCell id="SwX5QnUCMjqNOXKMfuhw-73" value="Rocket" style="rounded=1;whiteSpace=wrap;html=1;fontFamily=Verdana;fontSize=10;fillColor=#ffe6cc;strokeColor=#d79b00;" parent="1" vertex="1">
                    <mxGeometry x="1662.5" y="1131.25" width="40" height="90" as="geometry"/>
                </mxCell>
                <mxCell id="SwX5QnUCMjqNOXKMfuhw-87" style="edgeStyle=orthogonalEdgeStyle;rounded=1;orthogonalLoop=1;jettySize=auto;html=1;entryX=0.5;entryY=0;entryDx=0;entryDy=0;fontFamily=Verdana;fontSize=4;startArrow=none;startFill=0;endArrow=classic;endFill=1;strokeColor=#333333;strokeWidth=1;" parent="1" source="SwX5QnUCMjqNOXKMfuhw-81" target="SwX5QnUCMjqNOXKMfuhw-82" edge="1">
                    <mxGeometry relative="1" as="geometry">
                        <Array as="points">
                            <mxPoint x="1613" y="1159"/>
                            <mxPoint x="1613" y="1159"/>
                        </Array>
                    </mxGeometry>
                </mxCell>
                <mxCell id="SwX5QnUCMjqNOXKMfuhw-81" value="Mission Objectives" style="rounded=1;whiteSpace=wrap;html=1;fontFamily=Verdana;fontSize=6;fillColor=#fa6800;strokeColor=#C73500;fontColor=#000000;" parent="1" vertex="1">
                    <mxGeometry x="1586.25" y="1135" width="52.5" height="17.5" as="geometry"/>
                </mxCell>
                <mxCell id="SwX5QnUCMjqNOXKMfuhw-88" style="edgeStyle=orthogonalEdgeStyle;rounded=1;orthogonalLoop=1;jettySize=auto;html=1;entryX=0.5;entryY=0;entryDx=0;entryDy=0;fontFamily=Verdana;fontSize=4;startArrow=none;startFill=0;endArrow=classic;endFill=1;strokeColor=#333333;strokeWidth=1;" parent="1" source="SwX5QnUCMjqNOXKMfuhw-82" target="SwX5QnUCMjqNOXKMfuhw-85" edge="1">
                    <mxGeometry relative="1" as="geometry">
                        <Array as="points">
                            <mxPoint x="1613" y="1195"/>
                            <mxPoint x="1613" y="1195"/>
                        </Array>
                    </mxGeometry>
                </mxCell>
                <mxCell id="SwX5QnUCMjqNOXKMfuhw-82" value="Requirements" style="rounded=1;whiteSpace=wrap;html=1;fontFamily=Verdana;fontSize=6;fillColor=#fa6800;strokeColor=#C73500;fontColor=#000000;" parent="1" vertex="1">
                    <mxGeometry x="1586.25" y="1170" width="52.5" height="17.5" as="geometry"/>
                </mxCell>
                <mxCell id="SwX5QnUCMjqNOXKMfuhw-86" style="edgeStyle=orthogonalEdgeStyle;rounded=1;orthogonalLoop=1;jettySize=auto;html=1;entryX=0;entryY=0.5;entryDx=0;entryDy=0;fontFamily=Verdana;fontSize=6;startArrow=none;startFill=0;endArrow=classic;endFill=1;strokeColor=#333333;strokeWidth=1;" parent="1" source="SwX5QnUCMjqNOXKMfuhw-85" target="SwX5QnUCMjqNOXKMfuhw-73" edge="1">
                    <mxGeometry relative="1" as="geometry">
                        <Array as="points">
                            <mxPoint x="1645" y="1220"/>
                            <mxPoint x="1645" y="1176"/>
                            <mxPoint x="1663" y="1176"/>
                        </Array>
                    </mxGeometry>
                </mxCell>
                <mxCell id="SwX5QnUCMjqNOXKMfuhw-85" value="Design Constraints" style="rounded=1;whiteSpace=wrap;html=1;fontFamily=Verdana;fontSize=6;fillColor=#fa6800;strokeColor=#C73500;fontColor=#000000;" parent="1" vertex="1">
                    <mxGeometry x="1592.5" y="1203.75" width="40" height="25" as="geometry"/>
                </mxCell>
                <mxCell id="SwX5QnUCMjqNOXKMfuhw-89" value="Physical params" style="text;html=1;strokeColor=none;fillColor=none;align=center;verticalAlign=middle;whiteSpace=wrap;rounded=0;fontSize=10;fontFamily=Verdana;" parent="1" vertex="1">
                    <mxGeometry x="1990" y="1183.75" width="100" height="20" as="geometry"/>
                </mxCell>
                <mxCell id="SwX5QnUCMjqNOXKMfuhw-90" value="Physical&lt;br&gt;params" style="text;html=1;strokeColor=none;fillColor=none;align=center;verticalAlign=middle;whiteSpace=wrap;rounded=0;fontSize=10;fontFamily=Verdana;" parent="1" vertex="1">
                    <mxGeometry x="2155" y="1605" width="100" height="20" as="geometry"/>
                </mxCell>
                <mxCell id="SwX5QnUCMjqNOXKMfuhw-98" value="Physical params" style="text;html=1;strokeColor=none;fillColor=none;align=center;verticalAlign=middle;whiteSpace=wrap;rounded=0;fontSize=10;fontFamily=Verdana;" parent="1" vertex="1">
                    <mxGeometry x="1730" y="1183.75" width="100" height="20" as="geometry"/>
                </mxCell>
                <mxCell id="SwX5QnUCMjqNOXKMfuhw-104" style="edgeStyle=orthogonalEdgeStyle;rounded=1;orthogonalLoop=1;jettySize=auto;html=1;entryX=1;entryY=0.5;entryDx=0;entryDy=0;fontFamily=Verdana;fontSize=4;startArrow=classic;startFill=1;endArrow=classic;endFill=1;strokeColor=#B20000;strokeWidth=1;fillColor=#e51400;" parent="1" source="SwX5QnUCMjqNOXKMfuhw-103" target="SwX5QnUCMjqNOXKMfuhw-10" edge="1">
                    <mxGeometry relative="1" as="geometry"/>
                </mxCell>
                <mxCell id="SwX5QnUCMjqNOXKMfuhw-109" style="edgeStyle=orthogonalEdgeStyle;rounded=1;orthogonalLoop=1;jettySize=auto;html=1;entryX=0;entryY=0.5;entryDx=0;entryDy=0;fontFamily=Verdana;fontSize=4;startArrow=none;startFill=0;endArrow=classic;endFill=1;strokeColor=#B20000;strokeWidth=1;fillColor=#e51400;" parent="1" source="SwX5QnUCMjqNOXKMfuhw-103" target="SwX5QnUCMjqNOXKMfuhw-107" edge="1">
                    <mxGeometry relative="1" as="geometry"/>
                </mxCell>
                <mxCell id="SwX5QnUCMjqNOXKMfuhw-103" value="" style="rounded=1;whiteSpace=wrap;html=1;fontFamily=Verdana;fontSize=14;fillColor=#B3B3B3;" parent="1" vertex="1">
                    <mxGeometry x="2108.5" y="1105" width="155" height="130" as="geometry"/>
                </mxCell>
                <mxCell id="SwX5QnUCMjqNOXKMfuhw-105" value="&lt;font style=&quot;font-size: 12px&quot;&gt;Optimiser&lt;/font&gt;" style="text;html=1;strokeColor=none;fillColor=none;align=center;verticalAlign=middle;whiteSpace=wrap;rounded=0;fontSize=12;fontFamily=Verdana;" parent="1" vertex="1">
                    <mxGeometry x="2136" y="1110" width="100" height="20" as="geometry"/>
                </mxCell>
                <mxCell id="SwX5QnUCMjqNOXKMfuhw-129" style="edgeStyle=orthogonalEdgeStyle;rounded=1;orthogonalLoop=1;jettySize=auto;html=1;fontFamily=Helvetica;fontSize=60;fontColor=#CC0000;startArrow=classic;startFill=1;endArrow=classic;endFill=1;strokeColor=#B20000;strokeWidth=1;fillColor=#e51400;" parent="1" source="SwX5QnUCMjqNOXKMfuhw-107" target="SwX5QnUCMjqNOXKMfuhw-128" edge="1">
                    <mxGeometry relative="1" as="geometry"/>
                </mxCell>
                <mxCell id="SwX5QnUCMjqNOXKMfuhw-107" value="" style="rounded=1;whiteSpace=wrap;html=1;fontFamily=Verdana;fontSize=14;fillColor=#B3B3B3;" parent="1" vertex="1">
                    <mxGeometry x="2380" y="1105" width="155" height="130" as="geometry"/>
                </mxCell>
                <mxCell id="SwX5QnUCMjqNOXKMfuhw-108" value="&lt;font style=&quot;font-size: 12px&quot;&gt;Deployer&lt;/font&gt;" style="text;html=1;strokeColor=none;fillColor=none;align=center;verticalAlign=middle;whiteSpace=wrap;rounded=0;fontSize=12;fontFamily=Verdana;" parent="1" vertex="1">
                    <mxGeometry x="2407.5" y="1110" width="100" height="20" as="geometry"/>
                </mxCell>
                <mxCell id="SwX5QnUCMjqNOXKMfuhw-114" value="" style="rounded=1;whiteSpace=wrap;html=1;fillColor=#f8cecc;shadow=0;strokeColor=#b85450;dashed=1;" parent="1" vertex="1">
                    <mxGeometry x="2225" y="670" width="195" height="240" as="geometry"/>
                </mxCell>
                <mxCell id="SwX5QnUCMjqNOXKMfuhw-115" value="GitHub" style="text;html=1;strokeColor=none;fillColor=none;align=center;verticalAlign=middle;whiteSpace=wrap;rounded=0;fontSize=30;fontFamily=Verdana;" parent="1" vertex="1">
                    <mxGeometry x="2235" y="690" width="170" height="20" as="geometry"/>
                </mxCell>
                <mxCell id="SwX5QnUCMjqNOXKMfuhw-121" style="edgeStyle=orthogonalEdgeStyle;rounded=1;orthogonalLoop=1;jettySize=auto;html=1;fontFamily=Helvetica;fontSize=45;fontColor=#CC0000;startArrow=classic;startFill=1;endArrow=classic;endFill=1;strokeColor=#000000;strokeWidth=3;" parent="1" source="SwX5QnUCMjqNOXKMfuhw-116" target="SwX5QnUCMjqNOXKMfuhw-120" edge="1">
                    <mxGeometry relative="1" as="geometry"/>
                </mxCell>
                <mxCell id="SwX5QnUCMjqNOXKMfuhw-116" value="GitClient" style="rounded=1;whiteSpace=wrap;html=1;fontFamily=Verdana;fontSize=14;fillColor=#ffe6cc;strokeColor=#d79b00;" parent="1" vertex="1">
                    <mxGeometry x="2263.5" y="1030" width="120" height="60" as="geometry"/>
                </mxCell>
                <mxCell id="SwX5QnUCMjqNOXKMfuhw-118" value="REST (HTTPs)" style="text;html=1;strokeColor=none;fillColor=none;align=right;verticalAlign=middle;whiteSpace=wrap;rounded=0;fontSize=20;fontFamily=Verdana;" parent="1" vertex="1">
                    <mxGeometry x="2275" y="955" width="40" height="20" as="geometry"/>
                </mxCell>
                <mxCell id="SwX5QnUCMjqNOXKMfuhw-119" value="Rocket object" style="text;html=1;strokeColor=none;fillColor=none;align=center;verticalAlign=middle;whiteSpace=wrap;rounded=0;fontSize=10;fontFamily=Verdana;" parent="1" vertex="1">
                    <mxGeometry x="2000" y="1150" width="100" height="20" as="geometry"/>
                </mxCell>
                <mxCell id="SwX5QnUCMjqNOXKMfuhw-123" style="edgeStyle=orthogonalEdgeStyle;rounded=1;orthogonalLoop=1;jettySize=auto;html=1;entryX=0.5;entryY=1;entryDx=0;entryDy=0;fontFamily=Helvetica;fontSize=45;fontColor=#CC0000;startArrow=classic;startFill=1;endArrow=classic;endFill=1;strokeColor=#B20000;strokeWidth=1;fillColor=#e51400;" parent="1" source="SwX5QnUCMjqNOXKMfuhw-120" target="SwX5QnUCMjqNOXKMfuhw-122" edge="1">
                    <mxGeometry relative="1" as="geometry"/>
                </mxCell>
                <mxCell id="SwX5QnUCMjqNOXKMfuhw-120" value="GitHub REST API" style="rounded=1;whiteSpace=wrap;html=1;fontFamily=Verdana;fontSize=14;fontColor=#333333;fillColor=#B3B3B3;" parent="1" vertex="1">
                    <mxGeometry x="2263.5" y="830" width="120" height="60" as="geometry"/>
                </mxCell>
                <mxCell id="SwX5QnUCMjqNOXKMfuhw-122" value="Vehicle Repository" style="rounded=1;whiteSpace=wrap;html=1;fontFamily=Verdana;fontSize=14;fontColor=#333333;fillColor=#B3B3B3;" parent="1" vertex="1">
                    <mxGeometry x="2263.5" y="730" width="120" height="60" as="geometry"/>
                </mxCell>
                <mxCell id="SwX5QnUCMjqNOXKMfuhw-125" style="edgeStyle=orthogonalEdgeStyle;rounded=1;orthogonalLoop=1;jettySize=auto;html=1;entryX=0.75;entryY=1;entryDx=0;entryDy=0;fontFamily=Helvetica;fontSize=60;fontColor=#CC0000;startArrow=classic;startFill=1;endArrow=classic;endFill=1;strokeColor=#B20000;strokeWidth=1;fillColor=#e51400;" parent="1" source="SwX5QnUCMjqNOXKMfuhw-124" target="SwX5QnUCMjqNOXKMfuhw-103" edge="1">
                    <mxGeometry relative="1" as="geometry"/>
                </mxCell>
                <mxCell id="SwX5QnUCMjqNOXKMfuhw-126" style="edgeStyle=orthogonalEdgeStyle;rounded=1;orthogonalLoop=1;jettySize=auto;html=1;fontFamily=Helvetica;fontSize=60;fontColor=#CC0000;startArrow=classic;startFill=1;endArrow=classic;endFill=1;strokeColor=#000000;strokeWidth=3;entryX=0;entryY=0.5;entryDx=0;entryDy=0;exitX=0.5;exitY=1;exitDx=0;exitDy=0;" parent="1" source="SwX5QnUCMjqNOXKMfuhw-124" target="SwX5QnUCMjqNOXKMfuhw-127" edge="1">
                    <mxGeometry relative="1" as="geometry">
                        <mxPoint x="2325" y="1465" as="targetPoint"/>
                    </mxGeometry>
                </mxCell>
                <mxCell id="SwX5QnUCMjqNOXKMfuhw-124" value="Dynamics&lt;br&gt;Connector" style="rounded=1;whiteSpace=wrap;html=1;fontFamily=Verdana;fontSize=14;fillColor=#ffe6cc;strokeColor=#d79b00;" parent="1" vertex="1">
                    <mxGeometry x="2216.25" y="1297.5" width="120" height="60" as="geometry"/>
                </mxCell>
                <mxCell id="SwX5QnUCMjqNOXKMfuhw-127" value="Dynamics Model?" style="text;html=1;strokeColor=none;fillColor=none;align=center;verticalAlign=middle;whiteSpace=wrap;rounded=0;shadow=0;fontFamily=Helvetica;fontSize=20;fontColor=#CC0000;" parent="1" vertex="1">
                    <mxGeometry x="2336.25" y="1430" width="103.5" height="20" as="geometry"/>
                </mxCell>
                <mxCell id="SwX5QnUCMjqNOXKMfuhw-133" style="edgeStyle=orthogonalEdgeStyle;rounded=1;orthogonalLoop=1;jettySize=auto;html=1;entryX=0;entryY=0.5;entryDx=0;entryDy=0;fontFamily=Helvetica;fontSize=20;fontColor=#CC0000;startArrow=classic;startFill=1;endArrow=classic;endFill=1;strokeColor=#000000;strokeWidth=3;" parent="1" source="SwX5QnUCMjqNOXKMfuhw-128" target="SwX5QnUCMjqNOXKMfuhw-132" edge="1">
                    <mxGeometry relative="1" as="geometry"/>
                </mxCell>
                <mxCell id="SwX5QnUCMjqNOXKMfuhw-128" value="Project Management Connector" style="rounded=1;whiteSpace=wrap;html=1;fontFamily=Verdana;fontSize=14;fillColor=#ffe6cc;strokeColor=#d79b00;" parent="1" vertex="1">
                    <mxGeometry x="2397.5" y="1295" width="120" height="60" as="geometry"/>
                </mxCell>
                <mxCell id="SwX5QnUCMjqNOXKMfuhw-132" value="Teams?" style="text;html=1;strokeColor=none;fillColor=none;align=center;verticalAlign=middle;whiteSpace=wrap;rounded=0;shadow=0;fontFamily=Helvetica;fontSize=20;fontColor=#CC0000;" parent="1" vertex="1">
                    <mxGeometry x="2517.5" y="1430" width="126" height="20" as="geometry"/>
                </mxCell>
            </root>
        </mxGraphModel>
    </diagram>
</mxfile>